<svg xmlns="http://www.w3.org/2000/svg" width="536" height="464" viewBox="0 0 536 464" version="1.1"><path d="M 102.309 110.533 C 95.349 114.002, 91.747 119.344, 91.192 127.025 C 90.638 134.679, 92.971 139.555, 100.974 147.475 L 107.012 153.449 110.203 150.259 L 113.394 147.068 106.697 140.131 C 100.927 134.154, 100 132.690, 100 129.548 C 100 122.067, 105.057 117, 112.524 117 C 116.523 117, 114.058 114.866, 152.205 151.354 C 162.492 161.194, 176.334 175.003, 182.963 182.042 L 195.017 194.839 191.892 199.867 C 186.315 208.838, 186.983 218.144, 193.621 223.972 L 197.120 227.044 192.810 229 C 187.190 231.550, 180.710 231.522, 175.342 228.923 C 172.494 227.545, 158.972 214.934, 135.132 191.423 C 113.217 169.811, 98.469 156, 97.306 156 C 95.090 156, 93 157.815, 93 159.739 C 93 160.475, 109.762 177.768, 130.250 198.166 C 157.635 225.432, 168.676 235.786, 171.939 237.258 C 182.527 242.035, 195.207 239.971, 204.267 231.996 L 208.740 228.059 254.620 227.779 C 300.262 227.501, 300.516 227.488, 303.627 225.270 C 310.493 220.372, 311.648 211.027, 305.913 206.772 C 303.492 204.976, 300.669 204.815, 261.884 204.273 C 216.558 203.638, 216 203.696, 216 209.016 C 216 211.365, 216.534 212.096, 218.637 212.624 C 220.088 212.988, 238.703 213.057, 260.004 212.779 C 282.585 212.483, 299.415 212.653, 300.367 213.185 C 302.285 214.259, 302.504 217.096, 300.800 218.800 C 299.903 219.697, 288.563 220, 255.934 220 L 212.267 220 212.750 213.247 C 213.098 208.382, 212.781 205.413, 211.617 202.625 C 210.728 200.497, 210 198.659, 210 198.541 C 210 198.424, 233.962 198.032, 263.250 197.670 C 298.167 197.239, 317.757 197.362, 320.150 198.026 C 324.082 199.117, 329.498 203.973, 330.329 207.151 C 330.710 208.608, 330.157 209.348, 328.171 210.039 C 323.193 211.771, 320.705 213.490, 317.598 217.343 C 314.813 220.797, 314.500 221.875, 314.500 227.995 L 314.500 234.804 310.611 235.325 C 308.472 235.612, 285.691 235.586, 259.986 235.268 L 213.250 234.689 211.602 237.203 C 208.189 242.413, 209.209 242.718, 232.725 243.519 C 254.679 244.267, 314.176 242.924, 317.108 241.614 C 318.397 241.037, 323.179 248.285, 341.246 278.198 C 353.637 298.714, 364.771 317.300, 365.987 319.500 C 370.962 328.501, 372.450 330.300, 376.405 332.096 C 378.657 333.119, 381.985 333.966, 383.800 333.978 C 390.309 334.021, 397 328.388, 397 322.865 C 397 320.113, 396.813 320, 392.237 320 C 388.257 320, 387.312 320.370, 386.487 322.250 C 385.050 325.527, 381.543 325.637, 378.798 322.493 C 377.534 321.044, 365.200 301.153, 351.389 278.291 L 326.278 236.722 330.097 232.903 C 334.030 228.970, 338 222.257, 338 219.540 C 338 218.693, 338.833 218, 339.852 218 C 344.242 218, 348.222 222.829, 360.040 242.500 C 366.649 253.500, 379.856 275.270, 389.389 290.877 C 411.063 326.363, 413.001 330.091, 413 336.300 C 413 341.771, 411.420 345.351, 407.339 349.128 C 403.523 352.660, 401.351 353.675, 395.847 354.500 C 388.849 355.550, 380.794 352.870, 375.360 347.685 C 370.772 343.308, 368.947 340.448, 335.883 285.828 C 316.010 252.999, 313.187 249.224, 309.550 250.619 C 305.707 252.094, 307.062 255.063, 325.767 286.163 C 336.133 303.399, 348.863 324.695, 354.057 333.489 C 364.332 350.886, 368.298 355.597, 375.925 359.462 C 395.771 369.519, 419.341 360.623, 422.857 341.750 C 424.096 335.100, 422.632 328.625, 418.236 321.312 C 416.181 317.894, 407.525 303.554, 399 289.447 C 390.475 275.339, 377.537 253.837, 370.249 241.664 C 362.960 229.490, 355.533 218.066, 353.744 216.277 C 351.954 214.488, 348.061 212.168, 345.092 211.123 C 340.134 209.377, 339.546 208.832, 337.884 204.454 C 335.626 198.505, 331.755 194.306, 326.232 191.815 C 322.207 190, 318.578 189.869, 262.232 189.510 L 202.500 189.129 162.770 149.953 C 133.409 121.002, 122.056 110.427, 119.270 109.433 C 113.440 107.353, 107.980 107.707, 102.309 110.533 M 116.989 135.021 C 116.394 136.132, 116.176 137.477, 116.505 138.008 C 116.834 138.540, 126.353 148.094, 137.658 159.238 C 148.964 170.382, 162.694 184.314, 168.170 190.198 C 176.988 199.673, 178.001 201.130, 177.028 202.948 C 175.338 206.105, 173.008 205.430, 167.719 200.250 L 162.868 195.500 160.934 197.861 C 157.898 201.566, 158.516 204.300, 163.410 208.810 C 168.905 213.876, 173.537 214.963, 179.042 212.481 C 181.195 211.510, 183.608 209.721, 184.405 208.504 C 186.534 205.255, 187.153 199.870, 185.738 196.899 C 183.674 192.563, 122.547 133, 120.161 133 C 119.011 133, 117.584 133.909, 116.989 135.021 M 198.557 204.223 C 196.066 207.779, 196.539 214.219, 199.496 216.996 C 200.869 218.286, 202.294 219.039, 202.664 218.669 C 203.879 217.455, 204.198 207.558, 203.112 204.750 C 201.825 201.419, 200.618 201.280, 198.557 204.223 M 326.248 221.250 C 323.814 223.858, 322.226 229, 323.856 229 C 324.445 229, 326.069 227.321, 327.464 225.268 C 331.387 219.495, 330.530 216.663, 326.248 221.250 M 341.250 237.662 C 339.124 238.520, 339.855 241.999, 343.397 247.869 C 345.266 250.966, 347.919 255.525, 349.294 258 C 351.761 262.441, 351.869 262.504, 357.548 262.804 L 363.301 263.109 361.648 260.586 C 360.739 259.198, 357.902 254.561, 355.344 250.282 C 348.244 238.405, 345.499 235.948, 341.250 237.662" stroke="none" fill="#1e1e1e" fill-rule="evenodd"/><path d="M 170.597 117.607 C 162.745 119.025, 147.073 123.850, 142.445 126.275 C 140.076 127.516, 140.541 128.055, 165.378 152.878 L 190.729 178.214 197.925 178.640 C 206.951 179.173, 212.841 181.111, 220.570 186.090 C 226.955 190.203, 229.606 190.811, 232.178 188.750 C 233.380 187.787, 261.529 154.022, 268.829 144.786 C 270.005 143.299, 269.373 142.526, 263.329 138.066 C 249.622 127.950, 231.432 120.535, 213 117.548 C 201.344 115.659, 181.229 115.687, 170.597 117.607 M 281.455 122.258 C 281.189 122.949, 281.091 138.362, 281.236 156.508 L 281.500 189.500 303 190 C 326.361 190.543, 327.660 190.833, 333.287 196.754 C 334.820 198.367, 336.892 201.841, 337.891 204.472 C 339.426 208.515, 340.311 209.468, 343.604 210.614 C 345.747 211.360, 347.837 211.977, 348.250 211.985 C 348.663 211.993, 349 191.525, 349 166.500 L 349 121 315.469 121 C 289.458 121, 281.829 121.282, 281.455 122.258 M 128.750 133.760 C 127.237 134.697, 126 135.700, 126 135.989 C 126 136.279, 136.783 147.291, 149.961 160.461 L 173.923 184.407 177.461 182.720 C 179.408 181.792, 181 180.620, 181 180.117 C 181 179.242, 133.520 132.737, 132.158 132.278 C 131.796 132.156, 130.262 132.823, 128.750 133.760 M 110.712 149.427 C 106.470 154.061, 103 158.227, 103 158.684 C 103 159.882, 155.826 212.507, 156.426 211.907 C 156.703 211.631, 157.581 208.610, 158.377 205.195 C 159.428 200.693, 160.939 197.657, 163.870 194.155 L 167.915 189.324 143.622 165.162 C 130.261 151.873, 119.126 141, 118.877 141 C 118.628 141, 114.954 144.792, 110.712 149.427 M 93.344 174.631 C 91.405 178.828, 88.644 186.591, 87.208 191.881 C 84.812 200.712, 84.599 203.098, 84.602 221 C 84.605 237.849, 84.896 241.544, 86.743 248.175 C 100.103 296.158, 140.503 326.009, 192 325.949 C 220.976 325.916, 246.489 316.933, 266.368 299.765 L 270.236 296.424 249.525 271.663 L 228.813 246.901 223.880 251.515 C 221.167 254.053, 215.921 257.553, 212.223 259.292 C 206.152 262.147, 204.579 262.453, 196 262.453 C 187.434 262.453, 185.843 262.144, 179.820 259.312 C 167.210 253.382, 159.305 243.157, 156.971 229.756 L 155.798 223.022 127.316 195.011 C 111.651 179.605, 98.392 167, 97.852 167 C 97.312 167, 95.283 170.434, 93.344 174.631 M 281 201 L 281 205 292.444 205 C 303.100 205, 304.082 205.166, 306.694 207.413 C 312.286 212.223, 309.498 222.638, 301.619 226.377 C 299.281 227.486, 295.456 228, 289.539 228 L 280.879 228 281.190 231.750 L 281.500 235.500 292 235.814 C 297.775 235.986, 305.200 235.850, 308.500 235.511 L 314.500 234.894 314.500 228.040 C 314.500 221.869, 314.809 220.802, 317.598 217.343 C 320.705 213.490, 323.193 211.771, 328.171 210.039 C 331.493 208.883, 331.081 206.485, 326.809 202.116 C 322.499 197.708, 318.677 197.012, 298.750 197.006 L 281 197 281 201 M 281.667 212.667 C 281.300 213.033, 281 214.833, 281 216.667 L 281 220 290.300 220 C 296.200 220, 300.039 219.561, 300.800 218.800 C 302.602 216.998, 302.246 214.202, 300.066 213.035 C 297.945 211.900, 282.738 211.596, 281.667 212.667 M 338 219.540 C 338 222.257, 334.031 228.969, 330.100 232.900 L 326.282 236.718 351.391 278.350 L 376.500 319.981 391.785 319.991 C 406.048 319.999, 407.005 319.883, 406.096 318.250 C 405.561 317.288, 397.736 304.350, 388.708 289.500 L 372.294 262.500 363.897 262.799 C 352.101 263.219, 349 262.530, 349 259.490 C 349 258.160, 346.975 253.735, 344.500 249.659 C 342.025 245.582, 340 241.300, 340 240.142 C 340 237.151, 344.427 236.171, 347.082 238.574 C 349.071 240.375, 349.082 240.332, 348.792 231.479 C 348.501 222.590, 348.494 222.568, 345.102 220.286 C 341.182 217.648, 338 217.314, 338 219.540 M 326.248 221.250 C 323.814 223.858, 322.226 229, 323.856 229 C 324.445 229, 326.069 227.321, 327.464 225.268 C 331.387 219.495, 330.530 216.663, 326.248 221.250 M 315 242 C 313.625 242.440, 305.413 242.845, 296.750 242.900 L 281 243 281 281.500 L 281 320 313.559 320 C 331.466 320, 345.930 319.663, 345.700 319.250 C 345.470 318.837, 336.650 304.174, 326.101 286.663 C 307.062 255.063, 305.700 252.097, 309.550 250.619 C 313.200 249.218, 315.990 252.971, 335.915 286.078 L 356.330 320 361.165 320 C 363.824 320, 366 319.806, 366 319.569 C 366 318.537, 318.714 241.010, 318.139 241.100 C 317.788 241.155, 316.375 241.560, 315 242 M 383.298 263.334 C 383.580 264.068, 390.715 276.106, 399.155 290.084 L 414.500 315.500 414.768 290.017 C 414.915 276.002, 414.816 263.964, 414.549 263.267 C 414.185 262.319, 410.126 262, 398.424 262 C 385.797 262, 382.885 262.257, 383.298 263.334" stroke="none" fill="#fbfbfb" fill-rule="evenodd"/></svg>